<svg width="123" height="111" viewBox="0 0 123 111" fill="none" xmlns="http://www.w3.org/2000/svg">
              <path fill-rule="evenodd" clip-rule="evenodd" d="M16.02 36.71L20.1 34.86V48.46L16.02 46.37V36.71ZM67.57 26.22V40.58C66.94 41.07 66.38 41.67 65.92 42.35C65.47 43.02 65.12 43.77 64.9 44.56L60.13 41.72L60.27 21.62L67.57 26.22ZM100.23 6.38H93.8C93.53 6.38 93.38 6.62 93.31 6.89L92.35 10.34C92.28 10.61 92.57 10.85 92.84 10.85H97.68C97.28 12.09 97.06 13.41 97.06 14.78C97.06 21.64 102.44 27.2 109.07 27.2C115.7 27.2 121.08 21.64 121.08 14.78C121.08 7.92 115.7 2.36 109.07 2.36C105.58 2.36 102.43 3.91 100.23 6.38ZM120.1 71.58L122.88 104.1C122.81 111.97 112.21 112.74 111.06 106.25L109.09 74.53L106.24 104.87C103.74 113.67 93.43 110.38 94.42 103.68L96.18 93.47L97.71 68.63C96.28 61.36 97.74 52.54 97.26 45.07C92.79 49.56 89.32 52.9 82.53 53.08C80.38 53 76.96 52.84 74.81 52.6C72.19 52.3 70.34 52.42 68.7 50.04C66.12 46.31 69.53 42 72.86 42.7C76.63 43.03 83.41 43.89 85.97 40.74C88.63 38.2 90.68 34.65 94.14 33.52C113.65 27.18 118.5 29.67 120.18 36.64C120.65 38.61 121.28 58.49 121.07 62.42C120.87 66.21 120.73 69.85 120.1 71.58ZM70.62 19.69L77.86 23.8L68.44 25L61.84 20.84L70.62 19.69ZM69.07 39.68V26.43L78.89 25.18L79.21 34.56L82.66 32.21L86.11 34.16L85.4 24.35L91.29 23.68V30.75C89 31.88 87.39 33.78 85.77 35.68C85.07 36.5 84.38 37.32 83.69 37.98C83.61 38.06 83.53 38.15 83.45 38.24C81.98 40.05 76.77 39.56 73.48 39.26C72.14 39.14 75.19 39.4 72.79 39.19C71.49 38.97 70.21 39.17 69.07 39.68ZM84.47 22.96L77.45 18.8L80.37 18.5L89.3 22.43L84.47 22.96ZM0 76.91H3.24H59.47H63.27V82.53H0V76.91ZM50.39 4.65V74.43H55.29V0H6.17V74.43H11.07V4.65H50.39Z" fill="black"/>
              </svg>