<svg width="20" height="21" viewBox="0 0 20 21" fill="none" xmlns="http://www.w3.org/2000/svg">
<g clip-path="url(#clip0_264_200)">
<path d="M20 10.1553C20 4.63229 15.523 0.155273 10 0.155273C4.47701 0.155273 0 4.63229 0 10.1553C0 14.8453 3.22868 18.78 7.58428 19.861V13.2111H5.5222V10.1553H7.58428V8.83857C7.58428 5.43465 9.12456 3.85704 12.466 3.85704C13.0998 3.85704 14.1929 3.9816 14.6401 4.10576V6.8759C14.4039 6.85115 13.9941 6.83857 13.4849 6.83857C11.8452 6.83857 11.2114 7.45979 11.2114 9.07472V10.1553H14.4778L13.9167 13.2111H11.2114V20.0822C16.1631 19.4842 20 15.268 20 10.1553Z" fill="#0866FF"/>
<path d="M13.9167 13.2115L14.4778 10.1557H11.2114V9.0751C11.2114 7.46017 11.8452 6.83895 13.4849 6.83895C13.9941 6.83895 14.4039 6.85153 14.6401 6.87628V4.10614C14.1929 3.98198 13.0998 3.85742 12.466 3.85742C9.12457 3.85742 7.5843 5.43542 7.5843 8.83896V10.1557H5.52222V13.2115H7.5843V19.8614C8.35797 20.0531 9.16701 20.1557 10 20.1557C10.4102 20.1557 10.8142 20.1305 11.2114 20.0826V13.2115H13.9167Z" fill="white"/>
</g>
<defs>
<clipPath id="clip0_264_200">
<rect width="20" height="20" fill="white" transform="translate(0 0.155273)"/>
</clipPath>
</defs>
</svg>
