<svg width="20" height="21" viewBox="0 0 20 21" fill="none" xmlns="http://www.w3.org/2000/svg">
<g clip-path="url(#clip0_264_188)">
<path d="M10.0052 0.306641C5.89274 0.306641 4.69001 0.310883 4.45622 0.330277C3.61228 0.400429 3.08713 0.533307 2.51501 0.818156C2.0741 1.0371 1.72638 1.29088 1.38319 1.64664C0.758194 2.29543 0.379406 3.09361 0.242285 4.0424C0.175618 4.503 0.156224 4.59694 0.152285 6.94967C0.15077 7.73391 0.152285 8.76604 0.152285 10.1504C0.152285 14.2595 0.15683 15.461 0.176527 15.6944C0.244709 16.5156 0.373497 17.0322 0.646224 17.5974C1.16744 18.6792 2.16289 19.4913 3.33562 19.7944C3.74168 19.8989 4.19016 19.9565 4.76592 19.9838C5.00986 19.9944 7.49622 20.0019 9.9841 20.0019C12.472 20.0019 14.9599 19.9989 15.1977 19.9868C15.8644 19.9554 16.2515 19.9035 16.6796 19.7929C17.8599 19.4883 18.8371 18.6883 19.369 17.5913C19.6364 17.0398 19.772 16.5035 19.8333 15.7251C19.8467 15.5554 19.8523 12.8498 19.8523 10.1479C19.8523 7.44543 19.8462 4.74482 19.8329 4.57513C19.7708 3.78422 19.6352 3.2524 19.3591 2.69028C19.1326 2.23013 18.8811 1.88649 18.5159 1.53513C17.8643 0.912701 17.0673 0.533913 16.1176 0.396944C15.6574 0.330429 15.5658 0.310732 13.2112 0.306641H10.0052Z" fill="url(#paint0_radial_264_188)"/>
<path d="M10.0052 0.306641C5.89274 0.306641 4.69001 0.310883 4.45622 0.330277C3.61228 0.400429 3.08713 0.533307 2.51501 0.818156C2.0741 1.0371 1.72638 1.29088 1.38319 1.64664C0.758194 2.29543 0.379406 3.09361 0.242285 4.0424C0.175618 4.503 0.156224 4.59694 0.152285 6.94967C0.15077 7.73391 0.152285 8.76604 0.152285 10.1504C0.152285 14.2595 0.15683 15.461 0.176527 15.6944C0.244709 16.5156 0.373497 17.0322 0.646224 17.5974C1.16744 18.6792 2.16289 19.4913 3.33562 19.7944C3.74168 19.8989 4.19016 19.9565 4.76592 19.9838C5.00986 19.9944 7.49622 20.0019 9.9841 20.0019C12.472 20.0019 14.9599 19.9989 15.1977 19.9868C15.8644 19.9554 16.2515 19.9035 16.6796 19.7929C17.8599 19.4883 18.8371 18.6883 19.369 17.5913C19.6364 17.0398 19.772 16.5035 19.8333 15.7251C19.8467 15.5554 19.8523 12.8498 19.8523 10.1479C19.8523 7.44543 19.8462 4.74482 19.8329 4.57513C19.7708 3.78422 19.6352 3.2524 19.3591 2.69028C19.1326 2.23013 18.8811 1.88649 18.5159 1.53513C17.8643 0.912701 17.0673 0.533913 16.1176 0.396944C15.6574 0.330429 15.5658 0.310732 13.2112 0.306641H10.0052Z" fill="url(#paint1_radial_264_188)"/>
<path d="M10.0006 2.88281C8.02548 2.88281 7.7776 2.89145 7.00184 2.92675C6.2276 2.96221 5.69911 3.08478 5.23669 3.26463C4.75836 3.45039 4.3526 3.69887 3.94836 4.10327C3.54381 4.50751 3.29533 4.91327 3.10896 5.39145C2.92866 5.85402 2.80593 6.38266 2.77108 7.1566C2.73639 7.93236 2.72729 8.18039 2.72729 10.1555C2.72729 12.1307 2.73608 12.3778 2.77123 13.1536C2.80684 13.9278 2.92942 14.4563 3.10911 14.9187C3.29502 15.3971 3.54351 15.8028 3.9479 16.2071C4.35199 16.6116 4.75775 16.8607 5.23578 17.0464C5.69851 17.2263 6.22714 17.3489 7.00123 17.3843C7.77699 17.4196 8.02472 17.4283 9.99972 17.4283C11.975 17.4283 12.2221 17.4196 12.9979 17.3843C13.7721 17.3489 14.3012 17.2263 14.764 17.0464C15.2421 16.8607 15.6473 16.6116 16.0514 16.2071C16.4559 15.8028 16.7044 15.3971 16.8908 14.9189C17.0696 14.4563 17.1923 13.9277 17.2287 13.1537C17.2635 12.378 17.2726 12.1307 17.2726 10.1555C17.2726 8.18039 17.2635 7.93251 17.2287 7.15675C17.1923 6.38251 17.0696 5.85402 16.8908 5.3916C16.7044 4.91327 16.4559 4.50751 16.0514 4.10327C15.6468 3.69872 15.2423 3.45024 14.7635 3.26463C14.2999 3.08478 13.7711 2.96221 12.9968 2.92675C12.2211 2.89145 11.9741 2.88281 9.99836 2.88281H10.0006ZM9.34821 4.19342C9.54184 4.19312 9.7579 4.19342 10.0006 4.19342C11.9424 4.19342 12.1726 4.20039 12.9394 4.23524C13.6485 4.26766 14.0334 4.38615 14.2897 4.48569C14.6291 4.61751 14.8711 4.77509 15.1255 5.02963C15.38 5.28418 15.5376 5.5266 15.6697 5.86599C15.7693 6.12205 15.8879 6.5069 15.9202 7.21599C15.955 7.98266 15.9626 8.21296 15.9626 10.1539C15.9626 12.0948 15.955 12.3251 15.9202 13.0918C15.8878 13.8008 15.7693 14.1857 15.6697 14.4418C15.5379 14.7811 15.38 15.0228 15.1255 15.2772C14.8709 15.5318 14.6293 15.6893 14.2897 15.8211C14.0337 15.9211 13.6485 16.0393 12.9394 16.0718C12.1728 16.1066 11.9424 16.1142 10.0006 16.1142C8.05866 16.1142 7.82851 16.1066 7.06184 16.0718C6.35275 16.039 5.9679 15.9205 5.71139 15.821C5.37199 15.6892 5.12957 15.5316 4.87502 15.2771C4.62048 15.0225 4.4629 14.7807 4.33078 14.4411C4.23123 14.1851 4.1126 13.8002 4.08033 13.0911C4.04548 12.3245 4.03851 12.0942 4.03851 10.1521C4.03851 8.20993 4.04548 7.98084 4.08033 7.21418C4.11275 6.50509 4.23123 6.12024 4.33078 5.86387C4.4626 5.52448 4.62048 5.28205 4.87502 5.02751C5.12957 4.77296 5.37199 4.61539 5.71139 4.48327C5.96775 4.38327 6.35275 4.26509 7.06184 4.23251C7.73275 4.20221 7.99275 4.19312 9.34821 4.1916V4.19342ZM13.8828 5.40099C13.4009 5.40099 13.01 5.79145 13.01 6.27342C13.01 6.75524 13.4009 7.14615 13.8828 7.14615C14.3646 7.14615 14.7555 6.75524 14.7555 6.27342C14.7555 5.7916 14.3646 5.40069 13.8828 5.40069V5.40099ZM10.0006 6.42069C7.93805 6.42069 6.26578 8.09296 6.26578 10.1555C6.26578 12.2181 7.93805 13.8896 10.0006 13.8896C12.0632 13.8896 13.7349 12.2181 13.7349 10.1555C13.7349 8.09296 12.0632 6.42069 10.0006 6.42069ZM10.0006 7.7313C11.3394 7.7313 12.4249 8.8166 12.4249 10.1555C12.4249 11.4943 11.3394 12.5798 10.0006 12.5798C8.66169 12.5798 7.57639 11.4943 7.57639 10.1555C7.57639 8.8166 8.66169 7.7313 10.0006 7.7313Z" fill="white"/>
</g>
<defs>
<radialGradient id="paint0_radial_264_188" cx="0" cy="0" r="1" gradientUnits="userSpaceOnUse" gradientTransform="translate(5.38463 21.5189) rotate(-90) scale(19.5195 18.1596)">
<stop stop-color="#FFDD55"/>
<stop offset="0.1" stop-color="#FFDD55"/>
<stop offset="0.5" stop-color="#FF543E"/>
<stop offset="1" stop-color="#C837AB"/>
</radialGradient>
<radialGradient id="paint1_radial_264_188" cx="0" cy="0" r="1" gradientUnits="userSpaceOnUse" gradientTransform="translate(-3.14836 1.72546) rotate(78.6776) scale(8.72539 35.9755)">
<stop stop-color="#3771C8"/>
<stop offset="0.128" stop-color="#3771C8"/>
<stop offset="1" stop-color="#6600FF" stop-opacity="0"/>
</radialGradient>
<clipPath id="clip0_264_188">
<rect width="20.0006" height="20" fill="white" transform="translate(0 0.155273)"/>
</clipPath>
</defs>
</svg>
