<svg width="21" height="21" viewBox="0 0 21 21" fill="none" xmlns="http://www.w3.org/2000/svg">
<g clip-path="url(#clip0_264_192)">
<path fill-rule="evenodd" clip-rule="evenodd" d="M5.26855 0.155273H16.2865C17.4888 0.158725 18.641 0.637906 19.4912 1.48813C20.3415 2.33836 20.8206 3.49053 20.8241 4.69292V15.6193C20.8202 16.8214 20.3408 17.9731 19.4907 18.823C18.6405 19.6729 17.4886 20.1518 16.2865 20.1553H5.26855C4.06643 20.1518 2.91451 19.6729 2.06433 18.823C1.21415 17.9731 0.734779 16.8214 0.730896 15.6193V4.69292C0.734347 3.49053 1.21353 2.33836 2.06376 1.48813C2.91398 0.637906 4.06615 0.158725 5.26855 0.155273Z" fill="#0A66C2"/>
<path fill-rule="evenodd" clip-rule="evenodd" d="M8.7744 7.90756H11.3139V9.21571H11.3498C11.7047 8.58126 12.568 7.90756 13.8582 7.90756C16.5383 7.90756 17.0337 9.57545 17.0337 11.7453V16.3337H14.3864V12.2555C14.3864 11.3218 14.3668 10.12 13.0095 10.12C11.6523 10.12 11.4201 11.1354 11.4201 12.1885V16.3419H8.7744V7.90756ZM7.27166 5.35339C7.27166 5.6257 7.19091 5.8919 7.03963 6.11832C6.88834 6.34474 6.67331 6.52121 6.42172 6.62542C6.17014 6.72963 5.89331 6.75689 5.62623 6.70377C5.35915 6.65064 5.11382 6.51951 4.92127 6.32696C4.72872 6.1344 4.59759 5.88908 4.54446 5.622C4.49134 5.35492 4.5186 5.07808 4.62281 4.8265C4.72702 4.57492 4.90349 4.35989 5.12991 4.2086C5.35633 4.05731 5.62252 3.97656 5.89484 3.97656C6.25986 3.977 6.60981 4.12219 6.86792 4.3803C7.12603 4.63842 7.27123 4.98837 7.27166 5.35339ZM4.52128 7.90756H7.27166V16.3337H4.52128V7.90756Z" fill="white"/>
</g>
<defs>
<clipPath id="clip0_264_192">
<rect width="20.0932" height="20" fill="white" transform="translate(0.730896 0.155273)"/>
</clipPath>
</defs>
</svg>
