<svg width="43" height="36" viewBox="0 0 43 36" fill="none" xmlns="http://www.w3.org/2000/svg">
<path fill-rule="evenodd" clip-rule="evenodd" d="M6.27899 5.32617H36.5529C38.2432 5.32617 38.7341 6.45591 38.7341 7.83648C38.7341 9.21706 38.2432 10.3466 36.5529 10.3466H6.27899C4.589 10.3466 4.09742 9.21706 4.09742 7.83648C4.09742 6.45567 4.589 5.32617 6.27899 5.32617ZM6.27899 25.392H36.5529C38.2432 25.392 38.7341 26.5215 38.7341 27.902C38.7341 29.2826 38.2432 30.4121 36.5529 30.4121H6.27899C4.589 30.4121 4.09741 29.2826 4.09741 27.902C4.09741 26.5215 4.589 25.392 6.27899 25.392ZM6.27899 15.3592H36.5529C38.2432 15.3592 38.7341 16.4887 38.7341 17.8693C38.7341 19.2498 38.2432 20.3796 36.5529 20.3796H6.27899C4.589 20.3796 4.09742 19.2498 4.09742 17.8693C4.09742 16.4887 4.589 15.3592 6.27899 15.3592Z" fill="white"/>
</svg>
