<svg width="40" height="40" viewBox="0 0 40 40" fill="none" xmlns="http://www.w3.org/2000/svg">
<path d="M1.37646 2.60547H7.24714C8.17205 2.60547 8.97632 3.23967 9.192 4.13908L13.2498 21.0603M13.2498 21.0603H31.2661C32.1179 21.0603 32.8763 20.5208 33.1555 19.716L37.6122 6.87325C38.0873 5.50404 36.9937 4.09982 35.5498 4.22507L9.74825 6.46319M13.2498 21.0603C13.2498 21.0603 10.9432 21.0603 10.9432 23.191C10.9366 23.4778 10.991 23.7628 11.1032 24.029C11.2153 24.2952 11.3829 24.537 11.5959 24.7398C11.8088 24.9426 12.0627 25.1022 12.3422 25.2091C12.6217 25.3159 12.921 25.3677 13.222 25.3614H23.5383H25.9636H28.6965H29.829C29.9808 25.3614 30.1321 25.3787 30.28 25.4129L31.2188 25.6302C31.3931 25.6706 31.5612 25.7341 31.7186 25.8192L32.3092 26.1384C32.5596 26.2737 32.7781 26.4608 32.9504 26.6873L33.3207 27.1743L33.6357 27.6694C33.7024 27.7742 33.7592 27.885 33.8054 28.0004L34.092 28.7169" stroke="white" stroke-width="2"/>
<path d="M12.9023 36.4229C14.929 36.4229 16.572 34.8558 16.572 32.9229C16.572 30.9899 14.929 29.4229 12.9023 29.4229C10.8756 29.4229 9.23267 30.9899 9.23267 32.9229C9.23267 34.8558 10.8756 36.4229 12.9023 36.4229Z" stroke="white" stroke-width="1.5"/>
<path d="M28.1101 36.4229C30.0431 36.4229 31.6101 34.8558 31.6101 32.9229C31.6101 30.9899 30.0431 29.4229 28.1101 29.4229C26.1771 29.4229 24.6101 30.9899 24.6101 32.9229C24.6101 34.8558 26.1771 36.4229 28.1101 36.4229Z" stroke="white" stroke-width="1.5"/>
</svg>
