<svg width="28" height="28" viewBox="0 0 28 28" fill="none" xmlns="http://www.w3.org/2000/svg">
<path d="M0.963379 1.82422H4.59973C5.52464 1.82422 6.3289 2.45842 6.54458 3.35783L9.27473 14.7426M9.27473 14.7426H21.4592C22.3111 14.7426 23.0694 14.2031 23.3487 13.3983L26.0249 5.68612C26.5001 4.3169 25.4065 2.91268 23.9626 3.03793L6.82363 4.52462M9.27473 14.7426C9.27473 14.7426 7.66012 14.7426 7.66012 16.2341C7.65547 16.4348 7.69355 16.6344 7.77207 16.8207C7.85059 17.007 7.96792 17.1763 8.11698 17.3182C8.26604 17.4602 8.44374 17.572 8.63938 17.6467C8.83501 17.7215 9.04452 17.7578 9.25527 17.7534H16.4767H18.1744H20.0874H20.8116C20.9634 17.7534 21.1147 17.7707 21.2627 17.8049L21.7742 17.9233C21.9485 17.9637 22.1166 18.0272 22.274 18.1123L22.5024 18.2357C22.7527 18.371 22.9713 18.5581 23.1435 18.7846L23.3243 19.0224L23.5148 19.3217C23.5815 19.4265 23.6383 19.5373 23.6844 19.6527L23.8642 20.1022" stroke="#248B00" stroke-width="2"/>
<path d="M9.03164 25.4957C10.4503 25.4957 11.6004 24.3988 11.6004 23.0457C11.6004 21.6926 10.4503 20.5957 9.03164 20.5957C7.61296 20.5957 6.46289 21.6926 6.46289 23.0457C6.46289 24.3988 7.61296 25.4957 9.03164 25.4957Z" stroke="#248B00" stroke-width="1.5"/>
<path d="M19.6771 25.4957C21.0302 25.4957 22.1271 24.3988 22.1271 23.0457C22.1271 21.6926 21.0302 20.5957 19.6771 20.5957C18.324 20.5957 17.2271 21.6926 17.2271 23.0457C17.2271 24.3988 18.324 25.4957 19.6771 25.4957Z" stroke="#248B00" stroke-width="1.5"/>
</svg>
