<svg width="22" height="24" viewBox="0 0 22 24" fill="none" xmlns="http://www.w3.org/2000/svg">
<mask id="path-1-inside-1_256_188" fill="white">
<path d="M16.0796 22.4658C16.0296 22.4903 15.9775 22.5105 15.924 22.5261C15.8675 22.5422 15.8096 22.5526 15.751 22.5571C15.6935 22.5624 15.6356 22.5624 15.5781 22.5571C15.5199 22.5528 15.4621 22.5442 15.4052 22.5313C15.3458 22.5157 15.2879 22.495 15.2322 22.4692C15.1764 22.444 15.1231 22.4134 15.0731 22.3779C15.025 22.342 14.9799 22.3022 14.9382 22.259C14.8956 22.213 14.8579 22.1628 14.8258 22.109L13.2556 19.5446L11.9257 21.0957C11.8659 21.1667 11.8024 21.2346 11.7355 21.299C11.668 21.3628 11.6006 21.4214 11.5314 21.4714L11.5176 21.4817C11.4513 21.5329 11.382 21.5801 11.31 21.623C11.2413 21.6643 11.1696 21.7006 11.0956 21.7316C11.0397 21.7573 10.9819 21.7786 10.9227 21.7954C10.8662 21.8127 10.8083 21.8254 10.7497 21.8333C10.689 21.8416 10.6277 21.8456 10.5664 21.8453C10.5084 21.8431 10.4506 21.8367 10.3935 21.8264C10.3236 21.8131 10.2552 21.7929 10.1894 21.7661C10.1248 21.7402 10.0633 21.7073 10.0061 21.6678C9.94882 21.6283 9.89553 21.5832 9.84699 21.5334C9.7989 21.4798 9.75551 21.4221 9.71729 21.3611L9.69827 21.3266L9.6827 21.2904L9.45962 20.6889V20.6596L8.28192 8.84212C8.27058 8.76613 8.27058 8.68889 8.28192 8.6129C8.29542 8.5377 8.3205 8.46504 8.35628 8.39748C8.4133 8.29019 8.49583 8.19847 8.59666 8.13035C8.64479 8.09717 8.69713 8.07051 8.75231 8.05107C8.80806 8.03036 8.86613 8.01647 8.92524 8.00971C8.99962 8.0014 9.07482 8.00431 9.14833 8.01832C9.22364 8.03323 9.29643 8.05876 9.3645 8.09415L9.41638 8.12173C11.7528 9.64523 13.93 11.0619 16.0986 12.4734L19.3844 14.6087C19.4442 14.647 19.502 14.6884 19.5574 14.7328C19.6072 14.7717 19.6546 14.8137 19.6992 14.8586L19.7096 14.8707C19.7539 14.9147 19.7949 14.9619 19.8323 15.012C19.8696 15.059 19.9025 15.1091 19.9309 15.1619C19.9667 15.2244 19.9962 15.2902 20.0191 15.3584C20.0413 15.4238 20.0564 15.4914 20.0641 15.56C20.0719 15.6293 20.0719 15.6993 20.0641 15.7686C20.0572 15.838 20.0439 15.9066 20.0243 15.9736C19.988 16.0897 19.9331 16.1991 19.8617 16.2976C19.8272 16.3485 19.7884 16.3963 19.7459 16.4407C19.702 16.4878 19.6546 16.5316 19.6041 16.5717C19.5406 16.6239 19.4735 16.6717 19.4035 16.7147C19.3286 16.7594 19.2513 16.7997 19.1717 16.8354C19.0904 16.8715 18.9988 16.906 18.9192 16.9353C18.8314 16.965 18.7419 16.9898 18.6512 17.0094C18.1722 17.1025 17.6948 17.218 17.221 17.3317L16.659 17.4644L18.2154 20.0392C18.2473 20.094 18.2739 20.1517 18.2949 20.2115C18.3577 20.3894 18.3668 20.5818 18.3209 20.7648V20.782C18.3068 20.8376 18.2877 20.8918 18.2638 20.944C18.2386 20.9974 18.2091 21.0487 18.1756 21.0974C18.1409 21.1475 18.1015 21.1942 18.058 21.237C18.0143 21.2796 17.9668 21.3182 17.9162 21.3524L17.5703 21.5748C17.0919 21.9015 16.5941 22.1991 16.0796 22.4658ZM7.71469 4.74037C7.79739 4.89792 7.81581 5.08122 7.76609 5.25198C7.71638 5.42275 7.60239 5.56777 7.44792 5.65675C7.29345 5.74573 7.11046 5.77179 6.93717 5.72949C6.76387 5.68719 6.61368 5.57979 6.51797 5.42974L5.13447 3.01695C5.05605 2.85998 5.0406 2.67914 5.09126 2.51122C5.14192 2.34329 5.25488 2.20092 5.40716 2.11308C5.55943 2.02523 5.73958 1.99851 5.91092 2.03836C6.08227 2.07821 6.23194 2.18164 6.32947 2.32758L7.72333 4.74037H7.71469ZM5.12064 12.8008C5.27815 12.7227 5.45962 12.7073 5.62812 12.7578C5.79662 12.8082 5.93948 12.9208 6.02763 13.0726C6.11578 13.2243 6.14259 13.4038 6.1026 13.5746C6.06261 13.7454 5.95883 13.8945 5.81238 13.9917L3.39127 15.3808C3.23377 15.4589 3.0523 15.4743 2.8838 15.4239C2.7153 15.3734 2.57243 15.2608 2.48429 15.109C2.39614 14.9573 2.36933 14.7778 2.40932 14.607C2.4493 14.4362 2.55308 14.2871 2.69953 14.1899L5.12064 12.8008ZM4.76266 8.25271C4.93279 8.30603 5.07569 8.42277 5.16152 8.57857C5.24735 8.73438 5.26947 8.91719 5.22328 9.08886C5.1771 9.26053 5.06616 9.40779 4.91363 9.4999C4.7611 9.59201 4.57876 9.62185 4.40468 9.58319L1.7259 8.85935C1.56147 8.80271 1.42449 8.68641 1.34226 8.53361C1.26004 8.38082 1.23861 8.20276 1.28224 8.03492C1.32587 7.86708 1.43136 7.72179 1.57769 7.62801C1.72401 7.53422 1.90043 7.49882 2.07177 7.52887L4.75747 8.25271H4.76266ZM15.3879 8.48192C15.2304 8.56008 15.0489 8.57548 14.8804 8.52499C14.7119 8.47451 14.569 8.36193 14.4809 8.21018C14.3927 8.05843 14.3659 7.8789 14.4059 7.70814C14.4459 7.53739 14.5497 7.38823 14.6961 7.29104L17.1172 5.90196C17.2747 5.82381 17.4562 5.80841 17.6247 5.85889C17.7932 5.90938 17.9361 6.02195 18.0242 6.1737C18.1124 6.32546 18.1392 6.50498 18.0992 6.67574C18.0592 6.8465 17.9554 6.99565 17.809 7.09284L15.3879 8.48192ZM12.1816 4.93167C12.1636 5.02454 12.1266 5.11271 12.0729 5.1907C12.0192 5.26869 11.95 5.33484 11.8695 5.38502C11.7891 5.43521 11.6991 5.46836 11.6052 5.4824C11.5114 5.49645 11.4156 5.49111 11.3239 5.46669C11.2322 5.44227 11.1466 5.39931 11.0722 5.34048C10.9979 5.28165 10.9365 5.20821 10.8919 5.12473C10.8473 5.04124 10.8204 4.9495 10.8129 4.85521C10.8054 4.76092 10.8174 4.6661 10.8483 4.57665L11.5608 1.90362C11.6176 1.73975 11.7343 1.60324 11.8877 1.5213C12.041 1.43936 12.2197 1.418 12.3881 1.46149C12.5565 1.50497 12.7023 1.61009 12.7964 1.75592C12.8905 1.90174 12.926 2.07755 12.8959 2.2483L12.1816 4.93167ZM15.6698 21.5386L17.3421 20.5287C16.7575 19.5601 15.8116 18.1934 15.3516 17.2248C15.3428 17.2048 15.3359 17.1841 15.3308 17.1628C15.3065 17.0559 15.3259 16.9437 15.3846 16.8509C15.4433 16.7582 15.5365 16.6924 15.6438 16.6682C16.5742 16.4562 17.5254 16.2563 18.4489 16.0253C18.5555 16.0016 18.6597 15.9682 18.7601 15.9254C18.8403 15.8906 18.9158 15.846 18.985 15.7927C19.0086 15.7726 19.0305 15.7507 19.0507 15.7272C19.0608 15.7147 19.069 15.7008 19.0749 15.6858L19.0645 15.6548C19.0442 15.6205 19.0185 15.5896 18.9884 15.5635C18.944 15.523 18.8959 15.4867 18.8449 15.4549L9.34548 9.27125C9.71037 12.9525 10.2447 16.8715 10.4609 20.5269C10.4666 20.5851 10.477 20.6428 10.492 20.6993C10.5028 20.7365 10.5179 20.7724 10.537 20.8061L10.5595 20.8302C10.5761 20.8327 10.593 20.8327 10.6096 20.8302C10.6399 20.8234 10.6695 20.8136 10.6978 20.801C10.7773 20.7655 10.8518 20.7197 10.9192 20.6648C11.0034 20.5951 11.0815 20.5184 11.1527 20.4356C11.4864 20.0444 12.8129 18.3433 13.1241 18.1641C13.2183 18.1083 13.3307 18.0919 13.437 18.1183C13.5432 18.1448 13.6347 18.2121 13.6914 18.3054L15.6698 21.5369V21.5386Z"/>
</mask>
<path d="M16.0796 22.4658C16.0296 22.4903 15.9775 22.5105 15.924 22.5261C15.8675 22.5422 15.8096 22.5526 15.751 22.5571C15.6935 22.5624 15.6356 22.5624 15.5781 22.5571C15.5199 22.5528 15.4621 22.5442 15.4052 22.5313C15.3458 22.5157 15.2879 22.495 15.2322 22.4692C15.1764 22.444 15.1231 22.4134 15.0731 22.3779C15.025 22.342 14.9799 22.3022 14.9382 22.259C14.8956 22.213 14.8579 22.1628 14.8258 22.109L13.2556 19.5446L11.9257 21.0957C11.8659 21.1667 11.8024 21.2346 11.7355 21.299C11.668 21.3628 11.6006 21.4214 11.5314 21.4714L11.5176 21.4817C11.4513 21.5329 11.382 21.5801 11.31 21.623C11.2413 21.6643 11.1696 21.7006 11.0956 21.7316C11.0397 21.7573 10.9819 21.7786 10.9227 21.7954C10.8662 21.8127 10.8083 21.8254 10.7497 21.8333C10.689 21.8416 10.6277 21.8456 10.5664 21.8453C10.5084 21.8431 10.4506 21.8367 10.3935 21.8264C10.3236 21.8131 10.2552 21.7929 10.1894 21.7661C10.1248 21.7402 10.0633 21.7073 10.0061 21.6678C9.94882 21.6283 9.89553 21.5832 9.84699 21.5334C9.7989 21.4798 9.75551 21.4221 9.71729 21.3611L9.69827 21.3266L9.6827 21.2904L9.45962 20.6889V20.6596L8.28192 8.84212C8.27058 8.76613 8.27058 8.68889 8.28192 8.6129C8.29542 8.5377 8.3205 8.46504 8.35628 8.39748C8.4133 8.29019 8.49583 8.19847 8.59666 8.13035C8.64479 8.09717 8.69713 8.07051 8.75231 8.05107C8.80806 8.03036 8.86613 8.01647 8.92524 8.00971C8.99962 8.0014 9.07482 8.00431 9.14833 8.01832C9.22364 8.03323 9.29643 8.05876 9.3645 8.09415L9.41638 8.12173C11.7528 9.64523 13.93 11.0619 16.0986 12.4734L19.3844 14.6087C19.4442 14.647 19.502 14.6884 19.5574 14.7328C19.6072 14.7717 19.6546 14.8137 19.6992 14.8586L19.7096 14.8707C19.7539 14.9147 19.7949 14.9619 19.8323 15.012C19.8696 15.059 19.9025 15.1091 19.9309 15.1619C19.9667 15.2244 19.9962 15.2902 20.0191 15.3584C20.0413 15.4238 20.0564 15.4914 20.0641 15.56C20.0719 15.6293 20.0719 15.6993 20.0641 15.7686C20.0572 15.838 20.0439 15.9066 20.0243 15.9736C19.988 16.0897 19.9331 16.1991 19.8617 16.2976C19.8272 16.3485 19.7884 16.3963 19.7459 16.4407C19.702 16.4878 19.6546 16.5316 19.6041 16.5717C19.5406 16.6239 19.4735 16.6717 19.4035 16.7147C19.3286 16.7594 19.2513 16.7997 19.1717 16.8354C19.0904 16.8715 18.9988 16.906 18.9192 16.9353C18.8314 16.965 18.7419 16.9898 18.6512 17.0094C18.1722 17.1025 17.6948 17.218 17.221 17.3317L16.659 17.4644L18.2154 20.0392C18.2473 20.094 18.2739 20.1517 18.2949 20.2115C18.3577 20.3894 18.3668 20.5818 18.3209 20.7648V20.782C18.3068 20.8376 18.2877 20.8918 18.2638 20.944C18.2386 20.9974 18.2091 21.0487 18.1756 21.0974C18.1409 21.1475 18.1015 21.1942 18.058 21.237C18.0143 21.2796 17.9668 21.3182 17.9162 21.3524L17.5703 21.5748C17.0919 21.9015 16.5941 22.1991 16.0796 22.4658ZM7.71469 4.74037C7.79739 4.89792 7.81581 5.08122 7.76609 5.25198C7.71638 5.42275 7.60239 5.56777 7.44792 5.65675C7.29345 5.74573 7.11046 5.77179 6.93717 5.72949C6.76387 5.68719 6.61368 5.57979 6.51797 5.42974L5.13447 3.01695C5.05605 2.85998 5.0406 2.67914 5.09126 2.51122C5.14192 2.34329 5.25488 2.20092 5.40716 2.11308C5.55943 2.02523 5.73958 1.99851 5.91092 2.03836C6.08227 2.07821 6.23194 2.18164 6.32947 2.32758L7.72333 4.74037H7.71469ZM5.12064 12.8008C5.27815 12.7227 5.45962 12.7073 5.62812 12.7578C5.79662 12.8082 5.93948 12.9208 6.02763 13.0726C6.11578 13.2243 6.14259 13.4038 6.1026 13.5746C6.06261 13.7454 5.95883 13.8945 5.81238 13.9917L3.39127 15.3808C3.23377 15.4589 3.0523 15.4743 2.8838 15.4239C2.7153 15.3734 2.57243 15.2608 2.48429 15.109C2.39614 14.9573 2.36933 14.7778 2.40932 14.607C2.4493 14.4362 2.55308 14.2871 2.69953 14.1899L5.12064 12.8008ZM4.76266 8.25271C4.93279 8.30603 5.07569 8.42277 5.16152 8.57857C5.24735 8.73438 5.26947 8.91719 5.22328 9.08886C5.1771 9.26053 5.06616 9.40779 4.91363 9.4999C4.7611 9.59201 4.57876 9.62185 4.40468 9.58319L1.7259 8.85935C1.56147 8.80271 1.42449 8.68641 1.34226 8.53361C1.26004 8.38082 1.23861 8.20276 1.28224 8.03492C1.32587 7.86708 1.43136 7.72179 1.57769 7.62801C1.72401 7.53422 1.90043 7.49882 2.07177 7.52887L4.75747 8.25271H4.76266ZM15.3879 8.48192C15.2304 8.56008 15.0489 8.57548 14.8804 8.52499C14.7119 8.47451 14.569 8.36193 14.4809 8.21018C14.3927 8.05843 14.3659 7.8789 14.4059 7.70814C14.4459 7.53739 14.5497 7.38823 14.6961 7.29104L17.1172 5.90196C17.2747 5.82381 17.4562 5.80841 17.6247 5.85889C17.7932 5.90938 17.9361 6.02195 18.0242 6.1737C18.1124 6.32546 18.1392 6.50498 18.0992 6.67574C18.0592 6.8465 17.9554 6.99565 17.809 7.09284L15.3879 8.48192ZM12.1816 4.93167C12.1636 5.02454 12.1266 5.11271 12.0729 5.1907C12.0192 5.26869 11.95 5.33484 11.8695 5.38502C11.7891 5.43521 11.6991 5.46836 11.6052 5.4824C11.5114 5.49645 11.4156 5.49111 11.3239 5.46669C11.2322 5.44227 11.1466 5.39931 11.0722 5.34048C10.9979 5.28165 10.9365 5.20821 10.8919 5.12473C10.8473 5.04124 10.8204 4.9495 10.8129 4.85521C10.8054 4.76092 10.8174 4.6661 10.8483 4.57665L11.5608 1.90362C11.6176 1.73975 11.7343 1.60324 11.8877 1.5213C12.041 1.43936 12.2197 1.418 12.3881 1.46149C12.5565 1.50497 12.7023 1.61009 12.7964 1.75592C12.8905 1.90174 12.926 2.07755 12.8959 2.2483L12.1816 4.93167ZM15.6698 21.5386L17.3421 20.5287C16.7575 19.5601 15.8116 18.1934 15.3516 17.2248C15.3428 17.2048 15.3359 17.1841 15.3308 17.1628C15.3065 17.0559 15.3259 16.9437 15.3846 16.8509C15.4433 16.7582 15.5365 16.6924 15.6438 16.6682C16.5742 16.4562 17.5254 16.2563 18.4489 16.0253C18.5555 16.0016 18.6597 15.9682 18.7601 15.9254C18.8403 15.8906 18.9158 15.846 18.985 15.7927C19.0086 15.7726 19.0305 15.7507 19.0507 15.7272C19.0608 15.7147 19.069 15.7008 19.0749 15.6858L19.0645 15.6548C19.0442 15.6205 19.0185 15.5896 18.9884 15.5635C18.944 15.523 18.8959 15.4867 18.8449 15.4549L9.34548 9.27125C9.71037 12.9525 10.2447 16.8715 10.4609 20.5269C10.4666 20.5851 10.477 20.6428 10.492 20.6993C10.5028 20.7365 10.5179 20.7724 10.537 20.8061L10.5595 20.8302C10.5761 20.8327 10.593 20.8327 10.6096 20.8302C10.6399 20.8234 10.6695 20.8136 10.6978 20.801C10.7773 20.7655 10.8518 20.7197 10.9192 20.6648C11.0034 20.5951 11.0815 20.5184 11.1527 20.4356C11.4864 20.0444 12.8129 18.3433 13.1241 18.1641C13.2183 18.1083 13.3307 18.0919 13.437 18.1183C13.5432 18.1448 13.6347 18.2121 13.6914 18.3054L15.6698 21.5369V21.5386Z" fill="#FF0000" stroke="#FF0000" stroke-width="112" mask="url(#path-1-inside-1_256_188)"/>
</svg>
