<svg width="25" height="28" viewBox="0 0 25 28" fill="none" xmlns="http://www.w3.org/2000/svg">
<mask id="path-1-inside-1_256_188" fill="white">
<path d="M18.7596 26.2094C18.7013 26.2381 18.6405 26.2616 18.578 26.2798C18.5122 26.2985 18.4446 26.3107 18.3763 26.316C18.3092 26.3221 18.2416 26.3221 18.1745 26.316C18.1066 26.311 18.0392 26.3009 17.9728 26.2858C17.9035 26.2677 17.836 26.2435 17.771 26.2134C17.7058 26.184 17.6437 26.1483 17.5854 26.1069C17.5292 26.065 17.4766 26.0186 17.428 25.9681C17.3783 25.9146 17.3343 25.8559 17.2969 25.7932L15.4649 22.8014L13.9134 24.6109C13.8436 24.6938 13.7695 24.773 13.6914 24.8482C13.6127 24.9226 13.5341 24.991 13.4534 25.0493L13.4372 25.0613C13.3599 25.121 13.279 25.1761 13.1951 25.2262C13.1149 25.2744 13.0313 25.3167 12.9449 25.3529C12.8797 25.3828 12.8122 25.4077 12.7432 25.4273C12.6772 25.4475 12.6098 25.4623 12.5414 25.4715C12.4705 25.4812 12.3991 25.4859 12.3275 25.4856C12.2598 25.4829 12.1924 25.4755 12.1258 25.4635C12.0443 25.448 11.9645 25.4244 11.8877 25.3931C11.8124 25.3629 11.7406 25.3245 11.6738 25.2785C11.607 25.2323 11.5448 25.1798 11.4882 25.1217C11.4321 25.0591 11.3815 24.9918 11.3369 24.9206L11.3147 24.8804L11.2965 24.8382L11.0363 24.1364V24.1023L9.6623 10.3152C9.64907 10.2265 9.64907 10.1364 9.6623 10.0477C9.67805 9.96 9.70731 9.87523 9.74905 9.7964C9.81558 9.67124 9.91187 9.56424 10.0295 9.48475C10.0856 9.44604 10.1467 9.41494 10.2111 9.39226C10.2761 9.3681 10.3439 9.35189 10.4128 9.34401C10.4996 9.33432 10.5874 9.33771 10.6731 9.35406C10.761 9.37145 10.8459 9.40124 10.9253 9.44253L10.9858 9.4747C13.7116 11.2521 16.2518 12.9049 18.7818 14.5516L22.6152 17.0428C22.685 17.0875 22.7523 17.1358 22.817 17.1876C22.8752 17.233 22.9304 17.2821 22.9824 17.3344L22.9945 17.3484C23.0463 17.3998 23.0941 17.4549 23.1378 17.5133C23.1812 17.5681 23.2197 17.6267 23.2528 17.6882C23.2945 17.7611 23.3289 17.8379 23.3557 17.9175C23.3816 17.9938 23.3992 18.0726 23.4082 18.1527C23.4172 18.2336 23.4172 18.3152 23.4082 18.396C23.4001 18.477 23.3846 18.5571 23.3617 18.6353C23.3194 18.7706 23.2553 18.8983 23.1721 19.0133C23.1318 19.0725 23.0865 19.1284 23.0369 19.1802C22.9857 19.2351 22.9304 19.2862 22.8715 19.333C22.7974 19.3939 22.7192 19.4496 22.6374 19.4999C22.5501 19.552 22.4599 19.599 22.3671 19.6406C22.2722 19.6828 22.1653 19.723 22.0725 19.7572C21.97 19.7919 21.8656 19.8207 21.7598 19.8437C21.2009 19.9522 20.644 20.087 20.0912 20.2197L19.4355 20.3745L21.2513 23.3784C21.2886 23.4424 21.3196 23.5097 21.3442 23.5795C21.4174 23.787 21.4279 24.0114 21.3744 24.2249V24.245C21.358 24.3099 21.3357 24.3731 21.3078 24.434C21.2784 24.4963 21.244 24.5561 21.2049 24.613C21.1644 24.6714 21.1185 24.726 21.0677 24.7758C21.0167 24.8255 20.9613 24.8706 20.9023 24.9105L20.4988 25.1699C19.9407 25.5511 19.3599 25.8983 18.7596 26.2094ZM9.00053 5.52978C9.09701 5.71359 9.1185 5.92744 9.0605 6.12666C9.00251 6.32589 8.86951 6.49507 8.6893 6.59889C8.50909 6.7027 8.2956 6.7331 8.09342 6.68375C7.89125 6.6344 7.71602 6.50911 7.60435 6.33405L5.99028 3.51912C5.89879 3.336 5.88076 3.12501 5.93986 2.9291C5.99896 2.73319 6.13075 2.56709 6.30841 2.46461C6.48607 2.36212 6.69623 2.33095 6.89614 2.37744C7.09604 2.42393 7.27065 2.54459 7.38444 2.71486L9.01062 5.52978H9.00053ZM5.97414 14.9336C6.1579 14.8425 6.36961 14.8245 6.5662 14.8834C6.76278 14.9423 6.92945 15.0736 7.03229 15.2507C7.13513 15.4277 7.16641 15.6372 7.11976 15.8364C7.07311 16.0356 6.95203 16.2096 6.78118 16.323L3.95655 17.9436C3.77279 18.0348 3.56107 18.0527 3.36449 17.9938C3.16791 17.9349 3.00124 17.8036 2.8984 17.6266C2.79556 17.4495 2.76428 17.2401 2.81093 17.0409C2.85758 16.8416 2.97866 16.6676 3.14951 16.5542L5.97414 14.9336ZM5.5565 9.62751C5.75499 9.68972 5.9217 9.82592 6.02183 10.0077C6.12196 10.1895 6.14778 10.4027 6.09389 10.603C6.04001 10.8033 5.91058 10.9751 5.73262 11.0826C5.55467 11.19 5.34195 11.2248 5.13886 11.1797L2.01361 10.3353C1.82177 10.2692 1.66196 10.1335 1.56604 9.95523C1.47011 9.77697 1.4451 9.56924 1.49601 9.37342C1.54691 9.17761 1.66998 9.00811 1.8407 8.89869C2.01141 8.78927 2.21722 8.74797 2.41713 8.78303L5.55045 9.62751H5.5565ZM17.9526 9.89493C17.7688 9.9861 17.5571 10.0041 17.3605 9.94517C17.1639 9.88628 16.9973 9.75494 16.8944 9.57789C16.7916 9.40085 16.7603 9.1914 16.807 8.99218C16.8536 8.79297 16.9747 8.61895 17.1455 8.50556L19.9702 6.88497C20.1539 6.79379 20.3656 6.77582 20.5622 6.83472C20.7588 6.89362 20.9255 7.02496 21.0283 7.202C21.1312 7.37905 21.1624 7.5885 21.1158 7.78771C21.0691 7.98693 20.9481 8.16094 20.7772 8.27433L17.9526 9.89493ZM14.212 5.75297C14.1909 5.86131 14.1477 5.96417 14.0851 6.05516C14.0224 6.14616 13.9417 6.22333 13.8478 6.28188C13.754 6.34042 13.649 6.3791 13.5395 6.39549C13.43 6.41188 13.3183 6.40564 13.2113 6.37715C13.1043 6.34867 13.0044 6.29855 12.9177 6.22991C12.831 6.16128 12.7594 6.0756 12.7073 5.9782C12.6553 5.8808 12.6239 5.77377 12.6151 5.66376C12.6064 5.55376 12.6204 5.44313 12.6564 5.33877L13.4877 2.22024C13.554 2.02906 13.6901 1.8698 13.869 1.7742C14.0479 1.6786 14.2563 1.65369 14.4528 1.70442C14.6493 1.75514 14.8194 1.87779 14.9292 2.04792C15.039 2.21805 15.0804 2.42315 15.0452 2.62237L14.212 5.75297ZM18.2814 25.1277L20.2325 23.9494C19.5505 22.8195 18.4469 21.225 17.9102 20.095C17.9 20.0716 17.8919 20.0474 17.886 20.0226C17.8577 19.8978 17.8802 19.767 17.9487 19.6588C18.0172 19.5505 18.126 19.4739 18.2512 19.4456C19.3367 19.1983 20.4463 18.965 21.5237 18.6956C21.6481 18.6679 21.7697 18.6289 21.8869 18.579C21.9804 18.5384 22.0685 18.4864 22.1492 18.4241C22.1767 18.4007 22.2024 18.3752 22.2258 18.3477C22.2377 18.3332 22.2472 18.3169 22.2541 18.2995L22.242 18.2633C22.2183 18.2232 22.1884 18.1873 22.1532 18.1567C22.1014 18.1095 22.0453 18.0671 21.9857 18.0301L10.9031 10.8158C11.3288 15.1106 11.9523 19.6828 12.2045 23.9474C12.2111 24.0153 12.2232 24.0826 12.2408 24.1485C12.2533 24.1919 12.2709 24.2338 12.2932 24.2732L12.3195 24.3013C12.3389 24.3041 12.3586 24.3041 12.378 24.3013C12.4133 24.2933 12.4478 24.2818 12.4809 24.2671C12.5736 24.2258 12.6604 24.1723 12.7391 24.1083C12.8373 24.027 12.9284 23.9375 13.0115 23.8409C13.4009 23.3844 14.9484 21.3999 15.3116 21.1908C15.4214 21.1257 15.5526 21.1065 15.6765 21.1374C15.8005 21.1683 15.9072 21.2468 15.9733 21.3557L18.2814 25.1257V25.1277Z"/>
</mask>
<path d="M18.7596 26.2094C18.7013 26.2381 18.6405 26.2616 18.578 26.2798C18.5122 26.2985 18.4446 26.3107 18.3763 26.316C18.3092 26.3221 18.2416 26.3221 18.1745 26.316C18.1066 26.311 18.0392 26.3009 17.9728 26.2858C17.9035 26.2677 17.836 26.2435 17.771 26.2134C17.7058 26.184 17.6437 26.1483 17.5854 26.1069C17.5292 26.065 17.4766 26.0186 17.428 25.9681C17.3783 25.9146 17.3343 25.8559 17.2969 25.7932L15.4649 22.8014L13.9134 24.6109C13.8436 24.6938 13.7695 24.773 13.6914 24.8482C13.6127 24.9226 13.5341 24.991 13.4534 25.0493L13.4372 25.0613C13.3599 25.121 13.279 25.1761 13.1951 25.2262C13.1149 25.2744 13.0313 25.3167 12.9449 25.3529C12.8797 25.3828 12.8122 25.4077 12.7432 25.4273C12.6772 25.4475 12.6098 25.4623 12.5414 25.4715C12.4705 25.4812 12.3991 25.4859 12.3275 25.4856C12.2598 25.4829 12.1924 25.4755 12.1258 25.4635C12.0443 25.448 11.9645 25.4244 11.8877 25.3931C11.8124 25.3629 11.7406 25.3245 11.6738 25.2785C11.607 25.2323 11.5448 25.1798 11.4882 25.1217C11.4321 25.0591 11.3815 24.9918 11.3369 24.9206L11.3147 24.8804L11.2965 24.8382L11.0363 24.1364V24.1023L9.6623 10.3152C9.64907 10.2265 9.64907 10.1364 9.6623 10.0477C9.67805 9.96 9.70731 9.87523 9.74905 9.7964C9.81558 9.67124 9.91187 9.56424 10.0295 9.48475C10.0856 9.44604 10.1467 9.41494 10.2111 9.39226C10.2761 9.3681 10.3439 9.35189 10.4128 9.34401C10.4996 9.33432 10.5874 9.33771 10.6731 9.35406C10.761 9.37145 10.8459 9.40124 10.9253 9.44253L10.9858 9.4747C13.7116 11.2521 16.2518 12.9049 18.7818 14.5516L22.6152 17.0428C22.685 17.0875 22.7523 17.1358 22.817 17.1876C22.8752 17.233 22.9304 17.2821 22.9824 17.3344L22.9945 17.3484C23.0463 17.3998 23.0941 17.4549 23.1378 17.5133C23.1812 17.5681 23.2197 17.6267 23.2528 17.6882C23.2945 17.7611 23.3289 17.8379 23.3557 17.9175C23.3816 17.9938 23.3992 18.0726 23.4082 18.1527C23.4172 18.2336 23.4172 18.3152 23.4082 18.396C23.4001 18.477 23.3846 18.5571 23.3617 18.6353C23.3194 18.7706 23.2553 18.8983 23.1721 19.0133C23.1318 19.0725 23.0865 19.1284 23.0369 19.1802C22.9857 19.2351 22.9304 19.2862 22.8715 19.333C22.7974 19.3939 22.7192 19.4496 22.6374 19.4999C22.5501 19.552 22.4599 19.599 22.3671 19.6406C22.2722 19.6828 22.1653 19.723 22.0725 19.7572C21.97 19.7919 21.8656 19.8207 21.7598 19.8437C21.2009 19.9522 20.644 20.087 20.0912 20.2197L19.4355 20.3745L21.2513 23.3784C21.2886 23.4424 21.3196 23.5097 21.3442 23.5795C21.4174 23.787 21.4279 24.0114 21.3744 24.2249V24.245C21.358 24.3099 21.3357 24.3731 21.3078 24.434C21.2784 24.4963 21.244 24.5561 21.2049 24.613C21.1644 24.6714 21.1185 24.726 21.0677 24.7758C21.0167 24.8255 20.9613 24.8706 20.9023 24.9105L20.4988 25.1699C19.9407 25.5511 19.3599 25.8983 18.7596 26.2094ZM9.00053 5.52978C9.09701 5.71359 9.1185 5.92744 9.0605 6.12666C9.00251 6.32589 8.86951 6.49507 8.6893 6.59889C8.50909 6.7027 8.2956 6.7331 8.09342 6.68375C7.89125 6.6344 7.71602 6.50911 7.60435 6.33405L5.99028 3.51912C5.89879 3.336 5.88076 3.12501 5.93986 2.9291C5.99896 2.73319 6.13075 2.56709 6.30841 2.46461C6.48607 2.36212 6.69623 2.33095 6.89614 2.37744C7.09604 2.42393 7.27065 2.54459 7.38444 2.71486L9.01062 5.52978H9.00053ZM5.97414 14.9336C6.1579 14.8425 6.36961 14.8245 6.5662 14.8834C6.76278 14.9423 6.92945 15.0736 7.03229 15.2507C7.13513 15.4277 7.16641 15.6372 7.11976 15.8364C7.07311 16.0356 6.95203 16.2096 6.78118 16.323L3.95655 17.9436C3.77279 18.0348 3.56107 18.0527 3.36449 17.9938C3.16791 17.9349 3.00124 17.8036 2.8984 17.6266C2.79556 17.4495 2.76428 17.2401 2.81093 17.0409C2.85758 16.8416 2.97866 16.6676 3.14951 16.5542L5.97414 14.9336ZM5.5565 9.62751C5.75499 9.68972 5.9217 9.82592 6.02183 10.0077C6.12196 10.1895 6.14778 10.4027 6.09389 10.603C6.04001 10.8033 5.91058 10.9751 5.73262 11.0826C5.55467 11.19 5.34195 11.2248 5.13886 11.1797L2.01361 10.3353C1.82177 10.2692 1.66196 10.1335 1.56604 9.95523C1.47011 9.77697 1.4451 9.56924 1.49601 9.37342C1.54691 9.17761 1.66998 9.00811 1.8407 8.89869C2.01141 8.78927 2.21722 8.74797 2.41713 8.78303L5.55045 9.62751H5.5565ZM17.9526 9.89493C17.7688 9.9861 17.5571 10.0041 17.3605 9.94517C17.1639 9.88628 16.9973 9.75494 16.8944 9.57789C16.7916 9.40085 16.7603 9.1914 16.807 8.99218C16.8536 8.79297 16.9747 8.61895 17.1455 8.50556L19.9702 6.88497C20.1539 6.79379 20.3656 6.77582 20.5622 6.83472C20.7588 6.89362 20.9255 7.02496 21.0283 7.202C21.1312 7.37905 21.1624 7.5885 21.1158 7.78771C21.0691 7.98693 20.9481 8.16094 20.7772 8.27433L17.9526 9.89493ZM14.212 5.75297C14.1909 5.86131 14.1477 5.96417 14.0851 6.05516C14.0224 6.14616 13.9417 6.22333 13.8478 6.28188C13.754 6.34042 13.649 6.3791 13.5395 6.39549C13.43 6.41188 13.3183 6.40564 13.2113 6.37715C13.1043 6.34867 13.0044 6.29855 12.9177 6.22991C12.831 6.16128 12.7594 6.0756 12.7073 5.9782C12.6553 5.8808 12.6239 5.77377 12.6151 5.66376C12.6064 5.55376 12.6204 5.44313 12.6564 5.33877L13.4877 2.22024C13.554 2.02906 13.6901 1.8698 13.869 1.7742C14.0479 1.6786 14.2563 1.65369 14.4528 1.70442C14.6493 1.75514 14.8194 1.87779 14.9292 2.04792C15.039 2.21805 15.0804 2.42315 15.0452 2.62237L14.212 5.75297ZM18.2814 25.1277L20.2325 23.9494C19.5505 22.8195 18.4469 21.225 17.9102 20.095C17.9 20.0716 17.8919 20.0474 17.886 20.0226C17.8577 19.8978 17.8802 19.767 17.9487 19.6588C18.0172 19.5505 18.126 19.4739 18.2512 19.4456C19.3367 19.1983 20.4463 18.965 21.5237 18.6956C21.6481 18.6679 21.7697 18.6289 21.8869 18.579C21.9804 18.5384 22.0685 18.4864 22.1492 18.4241C22.1767 18.4007 22.2024 18.3752 22.2258 18.3477C22.2377 18.3332 22.2472 18.3169 22.2541 18.2995L22.242 18.2633C22.2183 18.2232 22.1884 18.1873 22.1532 18.1567C22.1014 18.1095 22.0453 18.0671 21.9857 18.0301L10.9031 10.8158C11.3288 15.1106 11.9523 19.6828 12.2045 23.9474C12.2111 24.0153 12.2232 24.0826 12.2408 24.1485C12.2533 24.1919 12.2709 24.2338 12.2932 24.2732L12.3195 24.3013C12.3389 24.3041 12.3586 24.3041 12.378 24.3013C12.4133 24.2933 12.4478 24.2818 12.4809 24.2671C12.5736 24.2258 12.6604 24.1723 12.7391 24.1083C12.8373 24.027 12.9284 23.9375 13.0115 23.8409C13.4009 23.3844 14.9484 21.3999 15.3116 21.1908C15.4214 21.1257 15.5526 21.1065 15.6765 21.1374C15.8005 21.1683 15.9072 21.2468 15.9733 21.3557L18.2814 25.1257V25.1277Z" fill="#FF0000" stroke="#FF0000" stroke-width="2" stroke-linejoin="round" mask="url(#path-1-inside-1_256_188)"/>
</svg>
