<svg width="33" height="33" viewBox="0 0 33 33" fill="none" xmlns="http://www.w3.org/2000/svg">
<path fill-rule="evenodd" clip-rule="evenodd" d="M2.74845 17.3298H14.4665C14.9671 17.3298 15.3763 17.8164 15.3763 18.4102V29.7866C15.3763 30.3813 14.9673 30.8674 14.4665 30.8674H2.74845C2.2484 30.8674 1.83866 30.3813 1.83866 29.7866V18.4102C1.83866 17.8164 2.2484 17.3298 2.74845 17.3298ZM19.2563 1.15527H30.9746C31.4754 1.15527 31.8844 1.64137 31.8844 2.23591V13.6123C31.8844 14.2068 31.4754 14.6924 30.9746 14.6924H19.2563C18.7558 14.6924 18.3473 14.2068 18.3473 13.6123V2.23591C18.3473 1.64137 18.7558 1.15527 19.2563 1.15527ZM2.7323 1.15527H14.4511C14.9517 1.15527 15.3609 1.64137 15.3609 2.23591V13.6123C15.3609 14.2068 14.9519 14.6924 14.4511 14.6924H2.7323C2.23224 14.6924 1.82324 14.2068 1.82324 13.6123V2.23591C1.82324 1.64137 2.23224 1.15527 2.7323 1.15527ZM19.2717 17.6181H30.9901C31.4901 17.6181 31.8999 18.1042 31.8999 18.699V30.0754C31.8999 30.6692 31.4901 31.1553 30.9901 31.1553H19.2717C18.7712 31.1553 18.362 30.6692 18.362 30.0754V18.699C18.362 18.1042 18.7712 17.6181 19.2717 17.6181Z" fill="white"/>
</svg>
