<svg width="124" height="103" viewBox="0 0 124 103" fill="none" xmlns="http://www.w3.org/2000/svg">
              <path fill-rule="evenodd" clip-rule="evenodd" d="M112.83 70.3996H122.89C123.155 70.3996 123.41 70.505 123.597 70.6925C123.785 70.8801 123.89 71.1344 123.89 71.3996V95.7996C123.89 96.0649 123.785 96.3192 123.597 96.5067C123.41 96.6943 123.155 96.7996 122.89 96.7996H112.83C112.565 96.7996 112.31 96.6943 112.123 96.5067C111.935 96.3192 111.83 96.0649 111.83 95.7996V71.3796C111.83 71.1144 111.935 70.8601 112.123 70.6725C112.31 70.485 112.565 70.3796 112.83 70.3796V70.3996ZM75.23 41.5396C76.3198 41.2405 77.4739 41.2716 78.546 41.6288C79.6182 41.986 80.5603 42.6533 81.2529 43.5463C81.9456 44.4392 82.3577 45.5176 82.4371 46.6449C82.5165 47.7723 82.2596 48.8978 81.6989 49.879C81.1382 50.8602 80.2989 51.653 79.2874 52.1569C78.2759 52.6608 77.1376 52.8533 76.0166 52.7099C74.8956 52.5665 73.8424 52.0936 72.9903 51.3513C72.1383 50.6089 71.5256 49.6304 71.23 48.5396C70.8347 47.081 71.0338 45.5252 71.7835 44.2131C72.5333 42.901 73.7727 41.9396 75.23 41.5396ZM109.92 53.2096L90.6 70.8096L88.24 68.2796L102 55.6996L102.19 55.5396C102.824 54.9463 103.197 54.1257 103.227 53.2577C103.257 52.3898 102.942 51.5453 102.35 50.9096L79.94 23.5896L83.21 20.5896L109.92 53.2096ZM1.68001 14.9996L10.74 12.5996C10.9773 12.5386 11.2291 12.5737 11.4407 12.6973C11.6523 12.8208 11.8066 13.0229 11.87 13.2596L17.76 35.2596C17.7918 35.3765 17.8001 35.4985 17.7846 35.6186C17.7691 35.7388 17.7301 35.8546 17.6697 35.9596C17.6093 36.0646 17.5288 36.1566 17.4327 36.2304C17.3367 36.3042 17.227 36.3583 17.11 36.3896L8.05001 38.7996C7.93313 38.8314 7.81113 38.8398 7.69101 38.8243C7.57088 38.8088 7.455 38.7697 7.35002 38.7093C7.24503 38.6489 7.153 38.5684 7.07921 38.4723C7.00541 38.3763 6.95131 38.2666 6.92001 38.1496L1.00001 16.1596C0.964043 16.0388 0.953306 15.9118 0.968462 15.7866C0.983618 15.6615 1.02434 15.5407 1.08811 15.432C1.15188 15.3232 1.23732 15.2287 1.33914 15.1543C1.44096 15.0799 1.55699 15.0273 1.68001 14.9996ZM15 15.6796C14.875 15.3099 14.875 14.9094 15 14.5396C15.38 13.5896 16.85 13.4496 17.76 13.1996C18.7003 12.9661 19.6123 12.6308 20.48 12.1996C21.7379 11.4872 22.9473 10.6921 24.1 9.81963C27.1 7.73963 29.89 5.99963 32.81 3.99963C39.31 -0.520368 37 -0.510368 45.3 0.649632C48.8687 1.15043 52.4023 1.87519 55.88 2.81963C56.3711 2.93882 56.8449 3.12029 57.29 3.35963C57.7381 3.63472 58.1454 3.97133 58.5 4.35963C62.5 7.72963 66.01 11.2596 69.5 14.8296C70.68 16.0896 71.37 17.3996 71.07 18.4196C69.84 22.6196 64.51 18.5396 59.34 16.2696C57.17 15.2696 54.34 14.6896 51.9 13.7996C48.9 13.3896 47.37 12.6596 44.33 12.7996C39.8 13.5996 41.13 20.0496 47.02 18.7196C51.02 17.8196 60.11 19.2196 63.27 21.9096C66.27 24.4096 65.86 27.7596 61.49 28.8096L57.68 29.0996C51.61 29.5696 51.68 29.2996 46 32.0296C42.93 33.4996 39.71 35.0296 36.21 35.2996C34.09 35.4696 32.8 34.9396 30.62 34.0496C29.5298 33.5101 28.3827 33.0941 27.2 32.8096C26.2438 32.5362 25.2546 32.3948 24.26 32.3896C22.78 32.3896 20.96 33.3896 19.83 32.3896C19.5146 32.0951 19.2892 31.7172 19.18 31.2996L15 15.6796ZM73.59 22.2196L100.38 53.3696L79.78 72.1396L50.78 38.4696L57.11 32.7096L62.51 32.2896L62.98 32.2096C64.3513 31.9108 65.6412 31.3171 66.76 30.4696L60.32 36.3396C61.0559 37.1472 61.4409 38.2141 61.3903 39.3055C61.3396 40.397 60.8575 41.4236 60.05 42.1596L77 62.5496C77.8071 61.8168 78.8718 61.4337 79.9608 61.4843C81.0498 61.535 82.0743 62.0151 82.81 62.8196L90.95 55.3896C90.5859 54.9906 90.3041 54.5237 90.1206 54.0156C89.9371 53.5075 89.8555 52.9683 89.8806 52.4287C89.9057 51.8891 90.0369 51.3597 90.2667 50.8708C90.4965 50.382 90.8205 49.9432 91.22 49.5796L82.77 39.3796L74.32 29.1796C73.9207 29.5452 73.4532 29.8284 72.9441 30.0128C72.4351 30.1971 71.8947 30.2791 71.3539 30.2541C70.8131 30.229 70.2826 30.0973 69.7928 29.8666C69.3031 29.6358 68.8637 29.3106 68.5 28.9096L67.5 29.8296C67.5919 29.7378 67.6787 29.6409 67.76 29.5396C68.3717 28.8051 68.7971 27.9337 69 26.9996C69.2208 26.0794 69.2208 25.1199 69 24.1996C68.9208 23.8593 68.8172 23.5251 68.69 23.1996C70.69 23.5996 72.34 23.3896 73.58 22.1996L73.59 22.2196ZM108.65 94.6496V72.5996H98.69C94.49 73.3496 90.29 75.5996 86.08 78.2796H78.38C74.89 78.4896 73.06 82.0196 76.45 84.3396C79.15 86.3396 82.72 86.2096 86.37 85.8896C88.89 85.7596 89 89.1496 86.37 89.1596C85.46 89.2296 84.47 89.0096 83.6 89.0096C79 88.9996 75.29 88.1396 73 84.5396L71.85 81.8396L60.37 76.1596C54.64 74.2696 50.57 80.2696 54.79 84.4496C62.7824 90.2771 71.3305 95.3015 80.31 99.4496C86.64 103.29 92.96 103.16 99.31 99.4496L108.64 94.6296L108.65 94.6496Z" fill="black"/>
              </svg>
