<svg width="119" height="93" viewBox="0 0 119 93" fill="none" xmlns="http://www.w3.org/2000/svg">
              <path fill-rule="evenodd" clip-rule="evenodd" d="M-1 52.5196H23L23.83 79.9396H-1V52.5196ZM80.73 0.0996094C92.93 0.0996094 102.84 9.98961 102.84 22.2096C102.84 34.4096 92.95 44.3196 80.73 44.3196C68.53 44.3196 58.62 34.4296 58.62 22.2096C58.63 10.0096 68.52 0.0996094 80.73 0.0996094ZM83.34 27.6696C83.34 26.8396 83.14 26.1896 82.73 25.7196C82.32 25.2496 81.6 24.7996 80.57 24.3896C79.55 23.9696 78.6 23.5496 77.73 23.1196C76.86 22.6896 76.11 22.1896 75.48 21.6196C74.85 21.0596 74.37 20.3996 74.03 19.6596C73.7 18.9196 73.53 18.0196 73.53 16.9596C73.53 15.1896 74.13 13.7296 75.32 12.5896C76.51 11.4396 78.1 10.7696 80.09 10.5896V8.19961H82.59V10.6396C84.5 10.9196 86.01 11.7096 87.1 12.9996C88.19 14.2896 88.75 15.9296 88.75 17.9196H83.44C83.44 16.8296 83.23 15.9996 82.81 15.4096C82.39 14.8296 81.8 14.5296 81.02 14.5296C80.33 14.5296 79.79 14.7496 79.41 15.1796C79.03 15.6096 78.84 16.2096 78.84 16.9796C78.84 17.7596 79.06 18.3696 79.5 18.8196C79.94 19.2796 80.65 19.7096 81.62 20.1296C82.6 20.5396 83.51 20.9696 84.38 21.4196C85.24 21.8696 85.99 22.3696 86.62 22.9296C87.25 23.4996 87.74 24.1596 88.09 24.9096C88.45 25.6596 88.63 26.5696 88.63 27.6196C88.63 29.4096 88.06 30.8696 86.93 31.9996C85.79 33.1296 84.25 33.7896 82.29 33.9796V36.1996H79.8V33.9596C77.52 33.7196 75.76 32.9396 74.55 31.6096C73.33 30.2896 72.72 28.5396 72.72 26.3696H78C78 27.5696 78.26 28.4696 78.79 29.0996C79.31 29.7196 80.07 30.0296 81.04 30.0296C81.75 30.0296 82.31 29.8196 82.72 29.3896C83.13 28.9896 83.34 28.3996 83.34 27.6696ZM28.83 79.9396V52.5196L36.5 50.5996L44.46 51.5996C50.96 57.5996 54.51 55.6796 66.07 53.5996L79.46 52.5196C85.3 52.8696 88.36 58.7896 82.68 62.6796C78.16 65.9996 72.72 64.2885 66.07 65.2596C61 66 61.67 70.7196 66.07 70.7396C67.6 70.8596 69.26 70.4996 70.71 70.4996C78.35 70.4896 82.29 70.4996 88.75 65.2596L97 60.5996L106.5 54.5996C116.1 51.4396 122.57 55.6896 115.5 62.6796C101.6 72.7896 90.8 81.2796 76.22 87.9996C65.63 94.4396 55.04 94.2196 44.46 87.9996L28.83 79.9396Z" fill="black"/>
              </svg>