<svg width="21" height="21" viewBox="0 0 21 21" fill="none" xmlns="http://www.w3.org/2000/svg">
<g clip-path="url(#clip0_264_195)">
<path fill-rule="evenodd" clip-rule="evenodd" d="M4.53765 0.155273H15.5556C16.758 0.158725 17.9101 0.637906 18.7603 1.48813C19.6106 2.33836 20.0898 3.49053 20.0932 4.69292V15.6193C20.0893 16.8214 19.61 17.9731 18.7598 18.823C17.9096 19.6729 16.7577 20.1518 15.5556 20.1553H4.53765C3.33553 20.1518 2.18362 19.6729 1.33343 18.823C0.483254 17.9731 0.00388261 16.8214 0 15.6193V4.69292C0.00345147 3.49053 0.482632 2.33836 1.33286 1.48813C2.18309 0.637906 3.33525 0.158725 4.53765 0.155273Z" fill="#160C1A"/>
<path fill-rule="evenodd" clip-rule="evenodd" d="M12.6842 2.61816C12.9278 4.69976 14.1755 6.16816 16.1884 6.29898V8.27265V6.59658C14.1624 6.4674 13.0031 5.22466 12.7545 3.1447H10.6288V11.9011C10.9378 15.8436 7.86692 15.9613 6.69122 14.4667C8.06151 15.3285 10.3017 14.7676 10.0336 11.3762V2.61816H12.6842ZM6.94141 17.137C6.33763 17.0175 5.76453 16.7762 5.25708 16.4279C4.74963 16.0795 4.31846 15.6315 3.98989 15.111C2.42338 12.5487 3.83618 8.37076 8.38037 7.94071V8.55717C4.15995 9.22923 3.73644 13.7538 4.9056 15.6375C5.38201 16.3664 6.10548 16.8989 6.94304 17.137H6.94141Z" fill="#26F4EE"/>
<path fill-rule="evenodd" clip-rule="evenodd" d="M13.2925 3.27148C13.4314 4.457 13.868 5.48717 14.5892 6.18049C13.5721 5.65559 12.9638 4.65812 12.7708 3.27148H13.2925ZM16.1769 7.02261C16.3541 7.06104 16.5339 7.08564 16.7149 7.09619V9.42961C15.5441 9.54571 14.5188 9.1598 13.3252 8.44849L13.5083 12.4514C13.5083 13.7432 13.5083 14.3335 12.8199 15.524C11.1291 18.4215 7.97155 18.4199 6.10089 16.77C8.53896 18.1697 12.7954 17.0741 12.7872 12.319V7.94486C13.9809 8.6627 15.0061 9.04697 16.1769 8.92597V7.02261ZM8.3689 8.70849C8.62391 8.65602 8.88155 8.61726 9.14071 8.59239V11.0615C8.15959 11.225 7.53168 11.5259 7.23898 12.0835C6.42139 13.6582 7.27659 14.9402 8.41632 15.3539C6.99043 15.3016 5.57763 13.8381 6.55874 11.9609C6.85144 11.4016 7.37634 11.1008 8.3689 10.9373V8.70849Z" fill="#FB2C53"/>
<path fill-rule="evenodd" clip-rule="evenodd" d="M12.7545 3.13965C12.9981 5.22451 14.1591 6.46399 16.1769 6.59317V8.93312C15.0061 9.04759 13.9809 8.66332 12.7872 7.95201V12.3196C12.797 18.0297 6.65523 18.4695 4.90557 15.6325C3.73968 13.7504 4.1632 9.22419 8.37545 8.55376V10.9297C7.39433 11.0932 6.85799 11.3941 6.56529 11.9533C4.76658 15.4068 11.0588 17.4623 10.6238 11.8977V3.13965H12.7545Z" fill="white"/>
</g>
<defs>
<clipPath id="clip0_264_195">
<rect width="20.0932" height="20" fill="white" transform="translate(0 0.155273)"/>
</clipPath>
</defs>
</svg>
