<svg width="33" height="33" viewBox="0 0 33 33" fill="none" xmlns="http://www.w3.org/2000/svg">
<g clip-path="url(#clip0_283_188)">
<path fill-rule="evenodd" clip-rule="evenodd" d="M32.0933 24.0346C32.0933 24.2096 32.0876 24.5896 32.077 24.8834C32.0514 25.6015 31.9945 26.5284 31.9083 26.9503C31.7932 27.5508 31.5983 28.1333 31.3289 28.6821C30.7363 29.8523 29.7852 30.8025 28.6145 31.394C28.0624 31.6642 27.4765 31.8593 26.8726 31.974C26.4545 32.0584 25.5345 32.114 24.8214 32.1396C24.527 32.1503 24.147 32.1553 23.9726 32.1553H8.21639C8.04139 32.1553 7.66139 32.1496 7.36764 32.139C6.64951 32.1134 5.72264 32.0565 5.30076 31.9709C4.7001 31.8552 4.11749 31.6602 3.56826 31.3909C2.39714 30.7978 1.44629 29.8458 0.854512 28.674C0.584321 28.1219 0.389255 27.5361 0.274512 26.9321C0.190137 26.514 0.134512 25.5928 0.108887 24.8809C0.0982617 24.5871 0.0932617 24.2065 0.0932617 24.0303V8.27402C0.0932617 8.09902 0.0988867 7.71902 0.108887 7.42527C0.137637 6.70902 0.194512 5.78027 0.280762 5.36027C0.396226 4.75964 0.591059 4.17703 0.860137 3.62777C1.45336 2.4582 2.40426 1.5084 3.57451 0.916523C4.12666 0.646332 4.71248 0.451267 5.31639 0.336523C5.73451 0.252148 6.65576 0.196523 7.36764 0.170898C7.66139 0.160273 8.04201 0.155273 8.21826 0.155273H23.9745C24.1495 0.155273 24.5295 0.160898 24.8233 0.170898C25.5395 0.199648 26.4683 0.256523 26.8883 0.342773C27.4889 0.458237 28.0715 0.653071 28.6208 0.922148C29.7903 1.51537 30.7401 2.46627 31.332 3.63652C31.6022 4.18867 31.7973 4.77449 31.912 5.3784C31.9964 5.79652 32.052 6.71652 32.0776 7.42965C32.0883 7.7234 32.0933 8.10402 32.0933 8.2784V24.0346Z" fill="url(#paint0_linear_283_188)"/>
<path fill-rule="evenodd" clip-rule="evenodd" d="M23.8159 8.38497C22.8103 7.37204 21.6135 6.56898 20.295 6.02244C18.9765 5.47589 17.5625 5.19675 16.1352 5.20122C10.1559 5.20122 5.28398 10.0706 5.28398 16.0569C5.28228 17.9616 5.7824 19.8331 6.73398 21.4831L5.19336 27.1081L10.9484 25.5975C12.5398 26.465 14.3233 26.9199 16.1359 26.9206H16.1402C22.1234 26.9206 26.9959 22.0512 26.9959 16.065C26.9991 14.6384 26.7196 13.2253 26.1734 11.9074C25.6273 10.5895 24.8254 9.39296 23.814 8.38685L23.8159 8.38497ZM16.1384 25.0931C14.5215 25.0934 12.9344 24.6586 11.5434 23.8344L11.2127 23.6375L7.79773 24.5306L8.70961 21.2012L8.49586 20.8594C7.58922 19.4226 7.10994 17.7576 7.11398 16.0587C7.11398 11.0812 11.1621 7.0306 16.1434 7.0306C17.3287 7.03076 18.5023 7.26452 19.5973 7.7185C20.6922 8.17248 21.687 8.83779 22.5246 9.6764C23.3623 10.515 24.0265 11.5105 24.4793 12.6059C24.9321 13.7014 25.1645 14.8753 25.1634 16.0606C25.159 21.04 21.1115 25.0894 16.1377 25.0894L16.1384 25.0931ZM21.0852 18.3306C20.8152 18.1931 19.4802 17.5387 19.2321 17.4481C18.984 17.3575 18.804 17.3112 18.6196 17.5856C18.4352 17.86 17.9184 18.4675 17.7596 18.6481C17.6009 18.8287 17.4434 18.8537 17.174 18.7162C16.9046 18.5787 16.0271 18.2931 14.9915 17.3687C14.1865 16.65 13.6409 15.76 13.4821 15.4937C13.3234 15.2275 13.464 15.0744 13.6021 14.9419C13.7271 14.8212 13.8721 14.6256 14.009 14.4669C14.1459 14.3081 14.189 14.1969 14.279 14.0131C14.369 13.8294 14.3252 13.6744 14.2571 13.5381C14.189 13.4019 13.6446 12.0662 13.4234 11.5225C13.2052 10.9906 12.9784 11.065 12.8115 11.0556C12.6446 11.0462 12.4727 11.0475 12.2934 11.0475C12.1561 11.0512 12.021 11.0831 11.8966 11.1413C11.7722 11.1994 11.6611 11.2826 11.5702 11.3856C11.3202 11.6556 10.6202 12.3144 10.6202 13.6494C10.6202 14.9844 11.5915 16.2744 11.7277 16.4562C11.864 16.6381 13.6409 19.3787 16.3615 20.5525C17.0077 20.83 17.5127 20.9969 17.9065 21.1262C18.4598 21.2929 19.0442 21.3295 19.614 21.2331C20.1359 21.1562 21.219 20.5775 21.4459 19.9444C21.6727 19.3112 21.6727 18.7675 21.6052 18.6556C21.5377 18.5437 21.3609 18.4681 21.0871 18.3294L21.0852 18.3306Z" fill="white"/>
</g>
<defs>
<linearGradient id="paint0_linear_283_188" x1="16.0241" y1="0.181798" x2="16.0241" y2="32.0431" gradientUnits="userSpaceOnUse">
<stop stop-color="#61FD7D"/>
<stop offset="1" stop-color="#2BB826"/>
</linearGradient>
<clipPath id="clip0_283_188">
<rect width="32" height="32" fill="white" transform="translate(0.0932617 0.155273)"/>
</clipPath>
</defs>
</svg>
